<?xml version="1.0" standalone="no"?>
<!DOCTYPE svg PUBLIC "-//W3C//DTD SVG 20010904//EN"
 "http://www.w3.org/TR/2001/REC-SVG-20010904/DTD/svg10.dtd">
<svg version="1.0" xmlns="http://www.w3.org/2000/svg"
 width="512.000000pt" height="512.000000pt" viewBox="0 0 512.000000 512.000000"
 preserveAspectRatio="xMidYMid meet">
<metadata>
Created by potrace 1.14, written by Peter Selinger 2001-2017
</metadata>
<g transform="translate(0.000000,512.000000) scale(0.100000,-0.100000)"
fill="#000000" stroke="none">
<path d="M315 5111 c-93 -16 -215 -103 -256 -184 -11 -21 -29 -73 -39 -115
-19 -75 -20 -128 -20 -1854 0 -1179 3 -1778 10 -1778 6 0 10 5 10 10 0 6 7 10
16 10 18 0 44 23 44 39 0 6 7 11 16 11 9 0 29 8 45 17 30 18 51 11 31 -9 -25
-25 -10 -27 28 -3 22 14 48 25 58 25 10 0 27 12 39 27 11 16 33 35 49 43 15 8
45 30 66 49 21 19 47 36 60 38 12 2 30 12 40 23 10 11 22 20 27 20 4 0 22 13
39 30 18 16 39 30 47 30 8 0 15 7 15 16 0 24 30 43 66 44 19 0 34 6 38 15 9
25 53 40 71 25 8 -7 15 -19 15 -26 0 -17 -27 -18 -33 -1 -3 6 -3 -2 0 -20 4
-25 1 -33 -16 -42 -26 -15 -27 -31 -2 -31 16 0 21 -8 24 -43 l4 -42 1 43 c1
29 6 42 16 42 10 0 16 14 19 42 3 24 4 4 3 -43 -1 -77 1 -85 16 -81 14 3 18
-2 19 -24 0 -25 2 -26 9 -9 5 13 8 -3 8 -49 1 -38 5 -73 9 -77 4 -4 7 69 6
164 -2 154 -10 268 -43 600 -6 54 -10 126 -10 161 0 49 -4 65 -16 70 -9 3 -84
6 -167 6 -84 0 -168 5 -189 10 -48 14 -100 73 -128 146 -19 50 -21 73 -17 154
5 108 23 159 82 227 43 50 134 97 220 112 32 6 63 15 69 21 6 6 4 95 -4 242
-7 128 -14 310 -14 403 -1 202 16 282 93 436 57 114 102 177 232 324 212 241
383 372 609 467 239 101 436 135 840 144 375 9 644 -12 865 -68 293 -73 563
-228 774 -442 41 -41 79 -72 84 -69 6 4 7 1 2 -6 -9 -15 43 -73 58 -64 6 3 7
1 3 -5 -7 -12 13 -52 26 -52 4 0 5 8 2 18 -5 14 -4 14 4 2 6 -8 9 -18 6 -22
-3 -4 2 -20 10 -35 15 -28 16 -28 22 -5 6 21 7 21 20 5 7 -10 14 -26 14 -35 0
-21 20 -24 20 -4 0 8 -4 18 -10 21 -14 9 -12 36 3 34 6 -1 25 3 40 9 16 7 37
12 48 12 30 0 22 18 -11 25 -16 4 -30 9 -30 12 0 11 30 33 42 31 9 -2 14 11
16 40 3 38 7 44 43 62 38 20 39 20 39 1 0 -11 -9 -23 -20 -26 -18 -6 -20 -15
-20 -86 0 -72 2 -79 20 -79 17 0 20 7 20 40 0 33 3 40 20 40 13 0 20 7 20 20
0 13 7 20 20 20 13 0 20 7 20 20 0 13 -7 20 -20 20 -13 0 -20 -7 -20 -20 0
-13 -7 -20 -20 -20 -15 0 -20 7 -20 26 l0 26 80 -7 c56 -5 80 -4 80 4 0 6 9
11 20 11 26 0 26 -12 0 -30 -12 -8 -20 -26 -20 -42 0 -21 -5 -28 -20 -28 -11
0 -20 -7 -20 -15 0 -8 -9 -15 -20 -15 -16 0 -20 -7 -20 -34 0 -19 -6 -36 -12
-39 -7 -2 -10 -8 -6 -12 10 -11 58 41 58 65 0 13 7 20 19 20 11 0 26 7 35 15
8 8 20 15 26 15 14 0 40 25 40 39 0 6 18 11 40 11 29 0 40 4 40 15 0 8 -9 15
-20 15 -11 0 -20 5 -20 10 0 6 9 10 20 10 11 0 20 5 20 10 0 6 5 10 10 10 6 0
10 -9 10 -20 0 -15 7 -20 28 -20 16 0 32 8 40 20 7 11 8 20 3 20 -5 0 -11 -6
-14 -12 -2 -7 -8 -9 -13 -5 -10 10 40 57 62 57 12 0 15 -6 11 -21 -5 -18 -2
-20 16 -15 12 3 36 6 53 6 l32 0 1 81 c1 49 -3 87 -10 95 -8 10 -8 14 0 14 6
0 11 18 11 45 0 25 -4 45 -9 45 -5 0 -14 14 -20 31 -14 39 -14 59 -1 39 8 -13
10 -13 10 2 0 24 -11 49 -20 43 -4 -2 -5 7 -2 22 3 18 1 24 -6 19 -7 -4 -10
-2 -7 6 8 20 -63 117 -113 155 -24 18 -66 40 -95 50 -49 17 -174 18 -2277 19
-1224 1 -2243 -1 -2265 -5z m4645 -606 c0 -10 -10 -15 -30 -15 -26 0 -29 2
-18 15 17 19 48 19 48 0z m94 -10 c3 -8 1 -15 -4 -15 -6 0 -10 7 -10 15 0 8 2
15 4 15 2 0 6 -7 10 -15z m-344 -11 c0 -2 -9 -4 -21 -4 -11 0 -18 4 -14 10 5
8 35 3 35 -6z m167 0 c-3 -3 -12 -4 -19 -1 -8 3 -5 6 6 6 11 1 17 -2 13 -5z
m-212 -44 c0 -7 -6 -15 -12 -17 -8 -3 -13 4 -13 17 0 13 5 20 13 18 6 -3 12
-11 12 -18z m135 -5 c0 -8 -4 -15 -9 -15 -13 0 -22 16 -14 24 11 11 23 6 23
-9z m-487 -130 c-3 -9 -8 -14 -10 -11 -3 3 -2 9 2 15 9 16 15 13 8 -4z m87
-27 c0 -16 -3 -19 -11 -11 -6 6 -8 16 -5 22 11 17 16 13 16 -11z m-4030 -2878
c0 -5 -5 -10 -11 -10 -5 0 -7 5 -4 10 3 6 8 10 11 10 2 0 4 -4 4 -10z"/>
<path d="M2370 4899 c-558 -23 -851 -137 -1189 -464 -180 -174 -312 -361 -371
-523 -46 -126 -52 -221 -35 -533 8 -145 15 -315 15 -376 l0 -112 -28 -14 c-15
-8 -54 -18 -87 -21 -130 -15 -185 -49 -233 -140 -23 -45 -26 -62 -26 -146 0
-72 5 -104 19 -134 29 -59 55 -66 263 -66 176 0 180 0 206 -25 14 -13 26 -32
26 -43 0 -55 55 -717 80 -956 10 -98 23 -183 30 -190 7 -7 81 -11 236 -12
l225 0 27 -27 27 -27 6 -358 c4 -196 7 -399 8 -449 l1 -93 1050 0 1050 0 0
448 c0 471 0 466 45 490 14 8 28 6 55 -8 39 -20 134 -40 187 -40 50 0 87 24
106 67 9 21 41 108 71 193 29 85 82 232 118 325 87 227 161 448 192 570 54
214 156 925 156 1083 0 142 -60 335 -176 562 -217 428 -438 665 -775 831 -315
156 -699 212 -1279 188z m429 -760 c96 -20 181 -107 201 -204 l11 -54 131 -66
c156 -79 175 -91 251 -164 96 -92 148 -185 163 -293 17 -122 -64 -274 -171
-324 l-50 -24 -631 0 c-707 0 -708 0 -772 67 -53 57 -66 90 -66 173 -1 148 38
188 325 335 141 71 365 159 381 149 8 -5 28 -71 28 -95 0 -9 -18 -21 -47 -31
-75 -25 -315 -133 -434 -194 -97 -51 -109 -60 -123 -95 -20 -51 -20 -94 0
-129 36 -60 11 -58 689 -61 585 -2 622 -2 655 16 39 20 52 34 80 87 24 45 27
133 6 183 -55 131 -244 280 -443 350 -74 25 -80 34 -82 111 -1 45 -30 95 -73
127 -38 29 -125 34 -172 12 -41 -20 -86 -78 -86 -111 0 -31 -15 -39 -100 -52
-164 -27 -400 -126 -525 -219 -231 -174 -301 -434 -171 -638 42 -64 91 -107
169 -146 57 -29 71 -32 186 -35 68 -3 127 -7 132 -10 5 -3 9 -27 9 -55 l0 -49
-127 0 c-198 0 -287 34 -393 146 -120 128 -171 304 -139 480 17 94 80 214 155
293 151 161 308 247 593 327 92 26 106 33 129 64 50 69 119 114 195 130 59 11
60 11 116 -1z m25 -421 c16 -27 29 -136 20 -172 -6 -24 -10 -26 -65 -26 -54 0
-59 2 -65 25 -3 14 -3 59 1 101 6 64 10 77 28 84 38 15 66 11 81 -12z m263
-225 c45 -21 141 -115 148 -146 11 -43 2 -102 -15 -98 -8 2 -44 6 -79 9 l-63
5 5 34 c8 47 1 61 -45 84 -48 24 -52 35 -38 88 12 47 30 52 87 24z m-293 -109
c9 -8 17 -21 17 -27 1 -7 3 -22 4 -34 1 -13 -3 -27 -9 -31 -6 -5 -99 -14 -206
-21 -107 -6 -228 -14 -267 -17 l-73 -5 0 44 c0 41 3 46 33 60 17 8 73 20 122
27 50 6 97 13 105 15 8 1 70 3 137 4 98 1 125 -2 137 -15z m936 -156 c11 -12
20 -27 20 -34 0 -24 -80 -218 -107 -259 -74 -113 -160 -183 -279 -228 -49 -18
-80 -22 -176 -22 l-118 0 -6 -30 c-20 -94 -122 -223 -210 -265 -68 -34 -121
-36 -206 -10 -40 12 -84 30 -98 40 -40 29 -79 120 -93 216 -7 47 -16 82 -19
78 -4 -3 -19 -3 -33 0 -33 8 -50 49 -33 79 26 50 67 59 134 28 l41 -19 6 -78
c12 -134 74 -234 156 -250 102 -21 247 131 267 279 l7 47 121 0 c216 0 293 27
395 135 60 64 113 162 125 228 12 66 26 87 57 87 16 0 37 -9 49 -22z"/>
<path d="M4337 4180 c3 -11 9 -22 13 -25 5 -3 6 4 3 15 -3 11 -9 22 -13 25 -5
3 -6 -4 -3 -15z"/>
<path d="M4700 4139 c0 -11 5 -17 10 -14 6 3 10 13 10 21 0 8 -4 14 -10 14 -5
0 -10 -9 -10 -21z"/>
<path d="M4377 4116 c21 -28 27 -28 16 0 -5 10 -14 20 -21 22 -9 2 -7 -5 5
-22z"/>
<path d="M4770 4115 c-10 -12 -10 -15 4 -15 9 0 16 7 16 15 0 8 -2 15 -4 15
-2 0 -9 -7 -16 -15z"/>
<path d="M4707 4103 c-12 -12 -7 -19 14 -20 17 -2 18 1 9 13 -14 16 -14 16
-23 7z"/>
<path d="M4435 4070 c3 -5 8 -10 11 -10 2 0 4 5 4 10 0 6 -5 10 -11 10 -5 0
-7 -4 -4 -10z"/>
<path d="M4411 4065 c0 -5 6 -21 14 -35 8 -14 14 -20 14 -15 0 6 -6 21 -14 35
-8 14 -14 21 -14 15z"/>
<path d="M4662 3440 c0 -14 2 -19 5 -12 2 6 2 18 0 25 -3 6 -5 1 -5 -13z"/>
<path d="M4673 3320 c0 -25 2 -35 4 -22 2 12 2 32 0 45 -2 12 -4 2 -4 -23z"/>
<path d="M4666 3198 c-13 -90 -28 -270 -22 -275 3 -4 6 0 7 8 0 8 2 25 4 39 2
14 7 63 10 110 3 47 8 100 11 118 2 17 3 32 0 32 -3 0 -7 -15 -10 -32z"/>
<path d="M4632 2875 c-1 -16 -5 -41 -8 -55 -5 -22 -4 -23 6 -7 6 9 9 34 7 55
-3 32 -4 33 -5 7z"/>
<path d="M4587 2608 c-15 -95 -27 -182 -27 -193 1 -19 1 -19 11 -2 11 19 16
50 18 115 1 26 5 41 11 37 6 -4 9 12 8 42 -1 26 2 76 6 111 15 120 0 61 -27
-110z"/>
<path d="M5066 2741 c-4 -7 -5 -15 -2 -18 9 -9 19 4 14 18 -4 11 -6 11 -12 0z"/>
<path d="M5106 2717 c-5 -15 -4 -49 0 -75 l8 -47 4 38 c2 20 2 54 0 75 -4 36
-4 36 -12 9z"/>
<path d="M5100 2390 c0 -5 5 -10 10 -10 6 0 10 5 10 10 0 6 -4 10 -10 10 -5 0
-10 -4 -10 -10z"/>
<path d="M4551 2373 c0 -12 -4 -30 -7 -40 -5 -17 -5 -17 6 0 6 10 9 28 7 40
-4 22 -4 22 -6 0z"/>
<path d="M4516 2213 c-31 -136 -192 -600 -258 -743 -11 -24 -41 -108 -65 -185
-68 -209 -98 -261 -169 -291 -46 -19 -71 -18 -170 11 -47 14 -90 25 -95 25 -5
0 -9 -31 -9 -70 0 -38 3 -70 8 -70 4 0 6 18 6 40 -1 22 2 40 7 40 9 0 37 -11
106 -41 53 -24 116 -24 154 -2 16 10 29 20 29 23 0 4 9 16 20 27 11 12 29 36
40 55 14 21 19 25 15 11 -3 -12 -1 -24 5 -28 9 -6 14 14 11 43 -1 6 2 12 7 12
5 0 9 19 9 43 0 41 8 74 36 151 9 25 17 34 21 25 3 -8 3 -4 0 8 -3 12 10 60
31 112 19 50 35 95 35 101 0 5 5 10 10 10 6 0 10 10 10 23 0 12 7 33 15 47 18
31 36 72 39 85 1 6 5 15 9 21 4 7 14 41 22 78 8 36 20 78 26 93 10 26 12 27
19 8 5 -14 8 -7 8 25 0 26 17 96 40 165 35 104 62 225 50 225 -2 0 -12 -35
-22 -77z"/>
<path d="M5100 1741 c0 -54 -3 -126 -6 -160 -6 -52 -5 -61 10 -61 14 0 16 18
16 160 0 100 -4 160 -10 160 -6 0 -10 -40 -10 -99z"/>
<path d="M5060 1665 c0 -8 5 -15 10 -15 6 0 10 7 10 15 0 8 -4 15 -10 15 -5 0
-10 -7 -10 -15z"/>
<path d="M822 1480 c0 -19 2 -27 5 -17 2 9 2 25 0 35 -3 9 -5 1 -5 -18z"/>
<path d="M5093 1465 c-18 -20 -16 -25 7 -25 13 0 20 7 20 20 0 23 -10 25 -27
5z"/>
<path d="M640 1425 c0 -22 4 -25 40 -25 36 0 40 3 40 25 0 23 -4 25 -40 25
-36 0 -40 -2 -40 -25z"/>
<path d="M5076 1403 c-3 -10 -6 -42 -7 -70 l-3 -53 -37 0 c-28 0 -38 5 -42 20
-4 16 -14 20 -46 20 -23 0 -41 5 -41 10 0 6 14 10 30 10 17 0 30 5 30 10 0 6
18 10 40 10 22 0 40 5 40 10 0 6 -18 10 -40 10 -22 0 -40 -4 -40 -9 0 -5 -17
-9 -37 -9 -21 0 -39 -5 -41 -11 -2 -6 -12 -11 -23 -11 -10 0 -19 -4 -19 -10 0
-5 -9 -10 -20 -10 -13 0 -20 -7 -20 -20 0 -17 -7 -20 -40 -20 -33 0 -40 -3
-40 -20 0 -13 -7 -20 -20 -20 -11 0 -20 -4 -20 -10 0 -5 -18 -10 -40 -10 -22
0 -40 -4 -40 -10 0 -5 -9 -10 -20 -10 -11 0 -20 -4 -20 -10 0 -5 -9 -10 -20
-10 -15 0 -22 -9 -26 -30 -7 -30 -29 -41 -37 -17 -2 6 -2 -12 1 -40 l5 -53
-47 0 -46 0 0 -40 c0 -39 -1 -40 -35 -40 -34 0 -35 -1 -35 -40 l0 -40 -65 0
-65 0 0 -40 0 -40 -55 0 c-48 0 -55 2 -55 20 0 11 -4 20 -8 20 -5 0 -17 -9
-27 -20 -10 -11 -24 -20 -31 -20 -15 0 -29 -147 -20 -212 3 -24 6 -53 6 -66 0
-19 5 -22 40 -22 21 0 42 -5 45 -10 4 -6 3 -10 -2 -9 -4 1 -24 1 -43 0 -30 -1
-35 -5 -36 -26 -3 -43 -12 -55 -44 -55 -28 0 -30 -3 -31 -37 0 -21 -3 -32 -6
-25 -7 17 -23 15 -23 -3 0 -8 -4 -15 -10 -15 -10 0 -13 13 -12 60 1 16 -1 19
-4 7 -3 -9 -12 -17 -20 -17 -10 0 -14 13 -14 51 0 53 -22 94 -34 63 -3 -9 -7
-25 -7 -37 -3 -53 -19 80 -24 198 -13 290 -23 239 -25 -127 -2 -203 -4 -376
-4 -385 -1 -10 5 -18 13 -18 8 0 16 -6 19 -12 2 -7 -1 -13 -6 -13 -6 0 -12 -7
-14 -15 -2 -12 -6 -11 -16 6 -8 11 -9 18 -3 14 6 -3 11 -2 11 3 0 19 -14 21
-32 5 -16 -15 -109 -16 -1075 -20 -1055 -5 -1058 -5 -1097 16 -22 11 -41 19
-43 17 -9 -8 19 -58 48 -85 l31 -30 1058 -1 1058 0 10 27 c10 27 10 27 11 4 1
-20 3 -21 16 -11 12 10 15 9 15 -5 0 -16 36 -17 548 -13 l547 3 48 24 c75 39
186 164 173 196 -3 9 -2 14 3 11 5 -3 15 14 22 39 7 25 17 45 21 45 4 0 8 248
8 550 0 537 0 550 -19 550 -11 0 -22 -8 -25 -17z m-196 -149 c0 -14 -7 -32
-15 -40 -13 -14 -15 -11 -15 25 0 30 4 41 15 41 9 0 15 -10 15 -26z m-80 -14
c0 -13 -7 -20 -20 -20 -11 0 -20 -4 -20 -10 0 -5 -13 -10 -30 -10 -16 0 -30 5
-30 10 0 6 9 10 20 10 11 0 20 5 20 10 0 6 9 10 20 10 11 0 20 5 20 10 0 6 5
10 10 10 6 0 10 -9 10 -20z m40 -46 c0 -7 -27 -34 -34 -34 -3 0 -6 9 -6 20 0
13 7 20 20 20 11 0 20 -3 20 -6z m80 -4 c0 -5 -2 -10 -4 -10 -3 0 -8 5 -11 10
-3 6 -1 10 4 10 6 0 11 -4 11 -10z m-280 -20 c0 -5 -13 -10 -30 -10 -16 0 -30
5 -30 10 0 6 14 10 30 10 17 0 30 -4 30 -10z m120 -60 c0 -5 -2 -10 -4 -10 -3
0 -8 5 -11 10 -3 6 -1 10 4 10 6 0 11 -4 11 -10z m280 -20 c0 -5 -4 -10 -10
-10 -5 0 -10 5 -10 10 0 6 5 10 10 10 6 0 10 -4 10 -10z m-619 -270 c10 0 19
-4 19 -10 0 -5 -10 -10 -21 -10 -20 0 -21 -4 -16 -42 4 -27 2 -37 -4 -27 -5 7
-8 46 -7 84 1 39 3 55 5 38 3 -25 9 -33 24 -33z m-161 -60 c0 -22 -4 -40 -10
-40 -16 0 -12 -42 7 -62 15 -17 15 -18 -5 -18 -18 0 -22 6 -23 33 l-1 32 -7
-30 c-4 -21 -13 -31 -29 -33 -20 -3 -22 1 -22 37 0 40 1 41 35 41 34 0 35 1
35 40 0 22 5 40 10 40 6 0 10 -18 10 -40z m60 16 c0 -14 -4 -28 -10 -31 -6 -4
-10 7 -10 24 0 17 5 31 10 31 6 0 10 -11 10 -24z m-290 -96 c0 -29 4 -40 15
-40 11 0 15 -11 15 -40 0 -33 -3 -40 -20 -40 -17 0 -20 7 -20 40 0 22 -4 40
-10 40 -5 0 -10 18 -10 40 0 29 4 40 15 40 11 0 15 -11 15 -40z m290 24 c0
-14 -3 -14 -15 -4 -8 7 -15 14 -15 16 0 2 7 4 15 4 8 0 15 -7 15 -16z m-220
-94 c0 -16 -4 -30 -10 -30 -5 0 -10 14 -10 30 0 17 5 30 10 30 6 0 10 -13 10
-30z m60 5 c0 -14 -4 -25 -10 -25 -5 0 -10 11 -10 25 0 14 5 25 10 25 6 0 10
-11 10 -25z m-73 -87 c-3 -7 -5 -2 -5 12 0 14 2 19 5 13 2 -7 2 -19 0 -25z
m793 -488 c-8 -5 -22 -9 -30 -9 -10 0 -8 3 5 9 27 12 43 12 25 0z"/>
<path d="M956 1095 c3 -16 14 -41 23 -55 34 -49 61 -55 276 -60 110 -3 206 -9
213 -13 9 -6 12 2 12 32 l0 41 -202 0 c-112 0 -220 5 -240 10 -21 6 -48 24
-63 43 l-26 32 7 -30z"/>
<path d="M4107 982 c-23 -25 -21 -32 6 -32 18 0 19 2 7 10 -13 9 -13 11 0 19
8 6 12 12 9 16 -3 3 -13 -3 -22 -13z"/>
<path d="M4153 920 c0 -25 2 -35 4 -22 2 12 2 32 0 45 -2 12 -4 2 -4 -23z"/>
<path d="M4050 915 c-7 -9 -11 -17 -8 -20 2 -2 12 4 21 15 9 11 13 20 8 20 -5
0 -14 -7 -21 -15z"/>
<path d="M3918 893 c7 -3 16 -2 19 1 4 3 -2 6 -13 5 -11 0 -14 -3 -6 -6z"/>
<path d="M3990 890 c8 -5 20 -10 25 -10 6 0 3 5 -5 10 -8 5 -19 10 -25 10 -5
0 -3 -5 5 -10z"/>
</g>
</svg>
